<svg xmlns="http://www.w3.org/2000/svg" id="d0-wordmark" viewBox="0 0 407 215" fill="none" aria-hidden="true">
	<g clip-path="url(#wordmark-clip)">
		<mask
			id="wordmark-m1"
			mask-type="alpha"
			maskUnits="userSpaceOnUse"
			x="25"
			y="120"
			width="66"
			height="96"
		>
			<path d="M89 122L45.5 160.5L26.5 215.5H60L89 122Z" fill="#D9D9D9" stroke="black" />
		</mask>
		<g mask="url(#wordmark-m1)">
			<path
				d="M34 222.167L106.169 -6.72473"
				stroke="currentColor"
				stroke-width="15"
				stroke-linecap="round"
			/>
			<path
				d="M48.6465 224.207L84.4305 110.715"
				stroke="#7542E4"
				stroke-width="15"
				stroke-linecap="round"
			/>
		</g>
		<path
			d="M10 55L72 109.112M10 165L71.5293 110.481"
			stroke="currentColor"
			stroke-width="15"
			stroke-linecap="round"
		/>
		<mask
			id="wordmark-m2"
			mask-type="luminance"
			maskUnits="userSpaceOnUse"
			x="60"
			y="14"
			width="164"
			height="216"
		>
			<path
				d="M60.2324 210.563L122.015 14.6146L223.597 46.6434L177.829 191.8C168.985 219.852 139.075 235.422 111.024 226.577L60.2324 210.563Z"
				fill="white"
			/>
		</mask>
		<g mask="url(#wordmark-m2)">
			<path
				d="M190 111C190 166.228 145.228 211 89.9999 211C34.7714 211 -10.0001 166.228 -10.0001 111C-10.0001 55.7714 34.7714 10.9998 89.9999 10.9998C145.228 10.9998 190 55.7714 190 111Z"
				fill="currentColor"
			/>
			<path
				d="M173.5 110.75C173.5 156.728 135.84 194 89.9999 194C44.1602 194 5.99988 156.728 5.99988 110.75C5.99988 64.7721 44.1602 27.4999 89.9999 27.4999C135.84 27.4999 173.5 64.7721 173.5 110.75Z"
				fill="#7542E4"
			/>
			<circle cx="89" cy="110" r="70" fill="currentColor" />
		</g>
		<mask
			id="wordmark-m3"
			mask-type="alpha"
			maskUnits="userSpaceOnUse"
			x="70"
			y="0"
			width="46"
			height="92"
		>
			<path d="M83.1429 92L70 82.0657L94 0H116L83.1429 92Z" fill="#D9D9D9" />
		</mask>
		<g mask="url(#wordmark-m3)">
			<path
				d="M34 222.167L106.169 -6.72473"
				stroke="currentColor"
				stroke-width="15"
				stroke-linecap="round"
			/>
		</g>
			<!-- "d0" letterforms — the slashed zero echoes the /dev/null mark. -->
			<path
				d="M297.16 177H281.5C278.74 177 276.7 176.46 275.38 175.38C274.18 174.18 273.58 172.2 273.58 169.44V159.36H273.4C271.48 164.4 267.88 168.84 262.6 172.68C257.32 176.4 250.9 178.26 243.34 178.26C231.34 178.26 221.56 174.06 214 165.66C206.56 157.26 202.84 146.28 202.84 132.72C202.84 119.04 206.56 108.06 214 99.78C221.56 91.38 231.4 87.18 243.52 87.18C250.96 87.18 257.14 88.92 262.06 92.4C266.98 95.76 270.52 99.9 272.68 104.82H272.86C272.74 102.42 272.68 100.44 272.68 98.88V59.82H262.6C261.04 59.82 260.26 59.1 260.26 57.66V49.92C260.26 48.48 261.04 47.76 262.6 47.76H284.92C286.36 47.76 287.08 48.48 287.08 49.92V164.94H297.16C298.6 164.94 299.32 165.66 299.32 167.1V174.84C299.32 176.28 298.6 177 297.16 177ZM217.6 132.36C217.6 142.32 220.18 150.36 225.34 156.48C230.62 162.6 237.28 165.66 245.32 165.66C253.36 165.66 259.96 162.66 265.12 156.66C270.28 150.54 272.86 142.44 272.86 132.36C272.86 122.28 270.22 114.36 264.94 108.6C259.66 102.72 253.12 99.78 245.32 99.78C237.52 99.78 230.92 102.72 225.52 108.6C220.24 114.48 217.6 122.4 217.6 132.36ZM401.84 128.045C401.84 136.189 400.902 143.426 399.027 149.754C397.152 156.023 394.457 161.297 390.941 165.574C387.426 169.91 383.119 173.191 378.021 175.418C372.924 177.645 367.094 178.758 360.531 178.758C354.027 178.758 348.197 177.674 343.041 175.506C337.885 173.279 333.52 169.969 329.945 165.574C326.371 161.297 323.646 156.023 321.771 149.754C319.896 143.426 318.959 136.189 318.959 128.045V98.0742C318.959 89.9297 319.896 82.7227 321.771 76.4531C323.646 70.125 326.371 64.793 329.945 60.457C333.461 56.1211 337.768 52.8398 342.865 50.6133C348.021 48.3281 353.852 47.1855 360.355 47.1855C366.918 47.1855 372.748 48.3281 377.846 50.6133C383.002 52.8398 387.367 56.1211 390.941 60.457C394.457 64.793 397.152 70.125 399.027 76.4531C400.902 82.7227 401.84 89.9297 401.84 98.0742V128.045ZM335.307 124.793L385.141 86.5605C384.672 82.3418 383.822 78.6211 382.592 75.3984C381.42 72.1172 379.809 69.3926 377.758 67.2246C375.766 64.998 373.305 63.3281 370.375 62.2148C367.504 61.1016 364.164 60.5449 360.355 60.5449C356.488 60.5449 353.061 61.1602 350.072 62.3906C347.143 63.5625 344.652 65.291 342.602 67.5762C340.141 70.4473 338.295 74.168 337.064 78.7383C335.893 83.25 335.307 88.4941 335.307 94.4707V115.916C335.307 117.381 335.307 118.846 335.307 120.311C335.307 121.775 335.307 123.27 335.307 124.793ZM385.492 131.473V113.367C385.492 112.488 385.492 110.818 385.492 108.357C385.492 105.838 385.492 103.758 385.492 102.117L335.746 140.174C336.273 144.451 337.211 148.23 338.559 151.512C339.906 154.734 341.664 157.4 343.832 159.51C345.824 161.502 348.227 163.025 351.039 164.08C353.852 165.076 357.016 165.574 360.531 165.574C364.223 165.574 367.504 165.018 370.375 163.904C373.246 162.791 375.678 161.18 377.67 159.07C380.365 156.199 382.328 152.449 383.559 147.82C384.848 143.191 385.492 137.742 385.492 131.473Z"
				fill="currentColor"
			/>
			<path
				d="M336 139.5C336 139.5 335.5 124.5 336 124.975L384.5 87.5L385 103L336 139.5Z"
				fill="#7542E4"
				stroke="#7542E4"
			/>
	</g>
	<defs>
		<clipPath id="wordmark-clip">
			<rect width="407" height="215" fill="white" />
		</clipPath>
	</defs>
</svg>
